<svg xmlns="http://www.w3.org/2000/svg" width="27" height="25" viewBox="0 0 27 25" fill="none">
  <rect x="1.4873" y="0.964355" width="24.445" height="22.9482" stroke="black"/>
  <path d="M17.4206 6.45134V16.9287C17.4206 19.1339 15.5228 20.9201 13.1798 20.9201C10.8367 20.9201 8.93895 19.1339 8.93895 16.9287V6.45134C8.93895 5.07431 10.1264 3.95673 11.5895 3.95673C13.0526 3.95673 14.24 5.07431 14.24 6.45134V15.9309C14.24 16.4797 13.7629 16.9287 13.1798 16.9287C12.5967 16.9287 12.1196 16.4797 12.1196 15.9309V6.45134H10.5293V15.9309C10.5293 17.3079 11.7167 18.4255 13.1798 18.4255C14.6429 18.4255 15.8303 17.3079 15.8303 15.9309V6.45134C15.8303 4.2461 13.9325 2.45996 11.5895 2.45996C9.24641 2.45996 7.34863 4.2461 7.34863 6.45134V16.9287C7.34863 19.9621 9.95675 22.4168 13.1798 22.4168C16.4028 22.4168 19.0109 19.9621 19.0109 16.9287V6.45134H17.4206Z" fill="white"/>
</svg>